<?xml version="1.0" standalone="no"?>
<!DOCTYPE svg PUBLIC "-//W3C//DTD SVG 20010904//EN"
 "http://www.w3.org/TR/2001/REC-SVG-20010904/DTD/svg10.dtd">
<svg version="1.0" xmlns="http://www.w3.org/2000/svg"
 width="421.000000pt" height="421.000000pt" viewBox="0 0 421.000000 421.000000"
 preserveAspectRatio="xMidYMid meet">
<metadata>
Created by potrace 1.11, written by Peter Selinger 2001-2013
</metadata>
<g transform="translate(0.000000,421.000000) scale(0.100000,-0.100000)"
fill="#000000" stroke="none">
<path d="M1997 3725 c-217 -41 -417 -169 -458 -292 -12 -38 -12 -38 -92 -17
-55 14 -64 14 -102 -1 -49 -18 -142 -111 -199 -196 -58 -88 -103 -202 -137
-349 -82 -357 -83 -359 -214 -595 -104 -188 -116 -279 -65 -475 33 -128 146
-364 247 -520 55 -83 84 -150 104 -240 10 -42 8 -50 -28 -125 -21 -44 -48 -88
-61 -98 -12 -10 -20 -23 -17 -28 8 -12 120 -11 170 2 22 5 81 14 131 18 53 5
111 18 138 29 25 12 46 17 46 13 0 -17 108 -54 172 -59 89 -6 132 3 172 38 45
40 63 39 72 -5 8 -46 43 -81 94 -95 70 -19 154 6 186 55 25 38 55 32 94 -20
48 -65 123 -99 215 -100 53 0 80 5 112 22 40 21 41 21 58 3 10 -11 43 -29 74
-41 48 -18 70 -20 151 -15 121 7 102 7 264 0 207 -9 295 15 241 66 -33 31 -56
112 -57 194 0 49 9 91 42 187 50 148 81 215 154 332 81 130 101 196 101 337 0
135 -18 204 -97 370 -27 58 -60 143 -73 189 l-22 83 36 33 c43 40 106 140 96
155 -4 7 -17 2 -35 -13 -56 -48 -141 -43 -160 9 -6 14 -28 92 -50 174 -21 81
-49 176 -60 211 -129 386 -432 660 -830 750 -116 26 -312 33 -413 14z m-39
-749 c202 -37 283 -46 389 -46 91 0 97 -1 137 -32 108 -83 201 -190 254 -294
l20 -40 -101 0 c-134 1 -217 -23 -217 -64 0 -37 23 -41 111 -19 75 19 91 20
144 10 68 -14 126 -48 152 -88 10 -16 35 -50 57 -78 107 -138 130 -198 140
-370 5 -75 3 -119 -9 -170 -25 -110 -102 -331 -140 -404 -84 -158 -248 -335
-416 -447 -134 -90 -193 -108 -349 -108 -131 0 -209 16 -310 66 -92 46 -272
227 -367 370 -91 136 -124 207 -162 343 -47 170 -54 232 -37 312 53 244 99
435 115 478 10 28 40 135 66 240 62 252 88 299 188 350 47 24 59 26 125 21 40
-3 135 -17 210 -30z m1128 -1371 c-14 -34 -34 -42 -58 -23 -15 12 -15 20 0
101 l16 88 27 -68 c23 -59 25 -72 15 -98z"/>
<path d="M1647 2599 c-73 -17 -177 -85 -177 -115 0 -20 20 -17 84 11 32 14 91
30 132 36 70 11 79 10 156 -16 l82 -27 18 22 c22 28 22 33 1 52 -45 40 -201
60 -296 37z"/>
<path d="M1583 2260 c-38 -18 -113 -92 -113 -112 0 -15 16 -8 41 18 24 26 89
64 108 64 6 0 2 -15 -9 -32 -20 -33 -27 -102 -12 -124 10 -17 158 -47 193 -40
23 4 29 2 29 -12 1 -12 9 -8 30 18 22 25 30 45 30 75 l1 40 22 -25 c12 -14 30
-37 39 -50 l17 -25 -9 34 c-20 72 -87 144 -163 176 -51 21 -152 19 -204 -5z
m126 -54 c16 -19 -4 -59 -26 -54 -26 5 -39 34 -24 52 17 20 35 20 50 2z"/>
<path d="M2528 2196 c-65 -23 -142 -95 -162 -151 -5 -14 5 -8 31 18 47 45 57
46 49 6 -6 -30 13 -91 32 -103 14 -9 236 16 243 27 17 25 19 90 4 120 -8 16
-13 32 -11 35 8 7 63 -37 100 -80 29 -34 36 -38 36 -21 0 25 -49 94 -87 120
-62 43 -160 56 -235 29z m36 -61 c9 -24 -4 -45 -29 -45 -29 0 -38 13 -30 40 8
24 50 27 59 5z"/>
<path d="M1960 1667 c0 -22 55 -65 98 -77 57 -15 159 -12 198 6 32 15 72 69
61 81 -3 2 -10 -4 -16 -15 -32 -60 -242 -64 -311 -6 -22 19 -30 22 -30 11z"/>
<path d="M1718 1525 c-4 -4 -3 -15 2 -24 4 -9 16 -36 26 -60 33 -79 152 -181
262 -224 53 -21 90 -22 47 -2 l-30 15 35 -7 c19 -4 53 -7 75 -6 l40 1 -30 -13
-30 -14 27 -1 c82 -1 215 51 294 116 23 19 54 59 72 93 40 78 30 90 -61 73
-180 -32 -402 -23 -577 24 -126 33 -144 37 -152 29z m352 -85 c58 -6 132 -13
164 -16 33 -2 64 -8 70 -14 13 -13 -185 -13 -279 0 -93 14 -151 30 -137 39 13
8 42 6 182 -9z"/>
<path d="M2409 1193 l-24 -28 28 24 c15 14 27 26 27 28 0 8 -8 1 -31 -24z"/>
<path d="M1855 1190 c10 -11 20 -20 23 -20 3 0 -3 9 -13 20 -10 11 -20 20 -23
20 -3 0 3 -9 13 -20z"/>
<path d="M1905 1150 c10 -11 20 -20 23 -20 3 0 -3 9 -13 20 -10 11 -20 20 -23
20 -3 0 3 -9 13 -20z"/>
<path d="M2359 1153 c-13 -16 -12 -17 4 -4 16 13 21 21 13 21 -2 0 -10 -8 -17
-17z"/>
<path d="M2311 1124 c-13 -9 -44 -25 -70 -36 -30 -12 -36 -17 -16 -13 29 6
115 51 115 60 0 8 -4 6 -29 -11z"/>
<path d="M2038 1073 c7 -3 16 -2 19 1 4 3 -2 6 -13 5 -11 0 -14 -3 -6 -6z"/>
<path d="M2098 1063 c17 -2 47 -2 65 0 17 2 3 4 -33 4 -36 0 -50 -2 -32 -4z"/>
</g>
</svg>
